Coordinates
version=1
nRows=14
nColumns=36
inDegrees=yes

Units are S.I. units (second, meters, Newtons, ...)
If the header above contains a line with 'inDegrees', this indicates whether rotational values are in degrees (yes) or radians (no).

endheader
time	pelvis_tilt	pelvis_list	pelvis_rotation	pelvis_tx	pelvis_ty	pelvis_tz	hip_flexion_r	hip_adduction_r	hip_rotation_r	knee_angle_r	knee_angle_r_beta	ankle_angle_r	subtalar_angle_r	mtp_angle_r	hip_flexion_l	hip_adduction_l	hip_rotation_l	knee_angle_l	knee_angle_l_beta	ankle_angle_l	subtalar_angle_l	mtp_angle_l	lumbar_extension	lumbar_bending	lumbar_rotation	arm_flex_r	arm_add_r	arm_rot_r	elbow_flex_r	pro_sup_r	arm_flex_l	arm_add_l	arm_rot_l	elbow_flex_l	pro_sup_l
      1.39000000	    -12.61233935	      8.41372131	      5.39388662	     -0.34066219	      1.18786814	     -0.58384555	     28.35619492	    -12.34430063	    -14.02355724	      7.59487378	      0.13255555	    -39.41189557	     -4.92068185	     -7.45972518	     37.97573947	      2.03768917	     -7.87396799	     29.33066633	      0.51191670	    -11.64336385	     19.81646867	     -7.45972518	    -13.34310845	     -4.43078375	      7.62825490	    -84.09489929	      3.25923381	    -20.64983409	     83.05086141	    114.02726429	    166.68721663	    -83.34914037	    178.37162502	    108.79401710	    105.59992682
      1.40000000	    -12.13074932	      8.21616708	      5.21376349	     -0.33075637	      1.15957669	     -0.58308217	     28.63828867	    -12.27444414	    -13.04757103	      9.61568559	      0.16782537	    -40.55301665	     -5.32232931	     -7.46707420	     38.83093404	      0.98995346	     -8.29983472	     31.99405485	      0.55840160	    -11.64121878	     19.23757394	     -7.46707420	    -13.72192549	     -3.72480269	      8.73869551	    -84.00339558	      6.52402017	    -19.76555872	     80.35677754	    112.96770426	    163.46723998	    -85.51577771	    177.96878496	    107.67814221	    103.38677967
      1.41000000	    -12.19742769	      8.15398669	      4.96251670	     -0.32016467	      1.12913611	     -0.58165887	     29.69457353	    -12.29065168	    -12.20717320	     12.12529458	      0.21162631	    -40.39977300	     -4.78324322	     -7.42618320	     40.32780824	     -0.11729809	     -8.96456492	     35.00130511	      0.61088802	    -11.51986130	     18.59929927	     -7.42618320	    -18.22521485	     -6.34422657	    -13.59947522	    -75.38027755	    -15.84880687	    -11.60210330	     84.08954881	    113.53178499	     82.13352375	   -138.58924118	     96.59330106	    123.96733153	    105.20132122
      1.42000000	    -11.66071894	      7.90621746	      4.34044114	     -0.31149091	      1.09910495	     -0.58004057	     30.65273534	    -11.98641141	    -11.77399720	     16.71239741	      0.29168636	    -33.86700311	     -4.71229789	     -7.43354679	     41.38399505	     -1.57477710	     -9.42139943	     38.22148008	      0.66709067	    -11.35173307	     18.01272859	     -7.43354679	    -19.21044658	     -6.11754169	    -13.63094311	    -74.05140063	    -14.45793886	     -9.92704451	     81.58348803	    111.76448851	     85.34060930	   -141.48170036	    101.13682394	    122.77842790	    103.98295749
      1.43000000	    -11.17053392	      7.69538058	      3.52972287	     -0.30398533	      1.06857491	     -0.57845731	     32.52764826	    -11.79548370	    -11.42485086	     24.30959531	      0.42428248	    -18.92143914	     -5.42737252	     -7.45399913	     42.52171188	     -3.01363485	     -9.69091146	     41.39216565	      0.72242958	    -11.15701248	     17.41779591	     -7.45399913	    -20.35908267	     -5.89950494	    -13.30960028	    -72.16902178	    -12.88788977	     -8.57648835	     78.64709643	    113.15243460	     88.88390886	   -143.73561272	    105.33772498	    120.98675168	    104.89065505
      1.44000000	    -10.65921669	      7.36730426	      2.69042187	     -0.29738790	      1.03783132	     -0.57727755	     34.76712847	    -11.50322782	    -10.82088623	     32.41929195	      0.56582339	     -3.23392704	     -6.18012756	     -7.45997516	     43.67694495	     -4.44489936	     -9.62520091	     44.25719712	      0.77243381	    -10.94691066	     17.21362612	     -7.45997516	    -21.71241331	     -5.47635826	    -12.95363633	    -69.86897452	    -11.69979301	     -6.80282438	     75.83245604	    111.38773241	     92.90315689	   -145.69134336	    109.40221005	    118.84630797	    104.06162226
      1.45000000	    -10.49006052	      6.86560604	      1.70852723	     -0.29229297	      1.00698462	     -0.57665241	     37.04402866	    -10.82917704	    -10.41102136	     38.43480554	      0.67081390	      7.61325986	     -7.60240909	     -7.46247180	     45.17947218	     -5.90055094	     -9.17112054	     46.49603070	      0.81150882	    -11.23857980	     17.40320182	     -7.46247180	    -22.91000484	     -4.81848869	    -12.33401580	    -67.14543604	    -10.89574732	     -4.98020701	     73.01922819	    110.76679947	     97.60127925	   -147.29841715	    113.56879606	    116.26447187	    103.71474979
      1.46000000	    -10.39651238	      6.43143304	      0.38249443	     -0.28905102	      0.97739345	     -0.57685429	     39.20599232	    -10.16672061	    -10.68369834	     43.11542400	      0.75250611	     15.92422269	     -8.20338695	     -7.46438852	     46.44627408	     -7.21370633	     -8.47650524	     48.48461561	      0.84621618	     -9.82368045	     17.85683573	     -7.46438852	    -24.42848684	     -4.23094153	    -11.49483783	    -63.71332539	    -10.52759561	     -3.16599287	     70.11108182	    111.57184848	    103.00407537	   -148.87232770	    117.45119060	    113.10296292	    104.55832280
      1.47000000	    -10.99112884	      6.16574328	     -1.15885631	     -0.28762888	      0.94826831	     -0.57791524	     43.14667736	     -9.52520555	    -10.20503711	     49.07253689	      0.85647734	     20.85661892	    -10.50718818	     -7.46575354	     48.47858117	     -8.33309811	     -7.68962820	     52.01784023	      0.90788258	     -4.06567508	     17.46421693	     -7.46575354	    -25.49275321	     -3.93116143	    -10.50070686	    -59.67658046	    -10.57438316	     -0.88903565	     67.14053189	    111.18668175	    108.63520338	   -150.29984881	    121.48399998	    109.81598698	    104.40223885
      1.48000000	    -11.84487622	      6.18176254	     -2.61813931	     -0.28650051	      0.92045736	     -0.57923636	     48.73443668	     -8.99371682	     -8.29902153	     57.03505216	      0.99544945	     23.52657315	    -11.65514696	     -7.46729903	     51.03222979	     -9.15700393	     -7.17722899	     57.20734580	      0.99845654	      4.79290998	     16.87931819	     -7.46729903	    -26.46313163	     -3.97074093	     -9.78807217	    -55.09212743	    -10.71211846	      1.37402775	     64.07818207	    111.20814769	    114.35547907	   -151.58785508	    125.24076799	    106.05680620	    104.89305288
      1.49000000	    -12.90018324	      6.15469423	     -3.80738118	     -0.28513738	      0.89438794	     -0.57999320	     54.68008019	     -8.20287712	     -6.05402137	     64.88930817	      1.13253208	     23.92517923	    -12.36213382	     -7.46847722	     54.20257117	     -9.95515602	     -6.93375590	     62.68747089	      1.09410277	     11.94812027	     14.62393333	     -7.46847722	    -27.30675388	     -4.01876898	     -9.37262053	    -50.01619546	    -10.85109625	      3.72191125	     60.83265315	    110.78057678	    119.90711976	   -152.61577910	    128.85199179	    102.10999547	    104.97073370
      1.50000000	    -14.04654109	      5.90829515	     -4.91640196	     -0.28429915	      0.87086649	     -0.57984442	     59.77820918	     -7.05713618	     -4.56187316	     71.06018336	      1.24023417	     23.73820638	    -12.59530638	     -7.46829978	     57.50318971	    -11.18260965	     -7.05232804	     67.24089906	      1.17357508	     16.66438124	     12.54227906	     -7.46829978	    -28.26996425	     -3.90268760	     -9.07605767	    -44.64351846	    -10.87370926	      5.48723626	     57.98188998	    111.71088702	    125.71012920	   -153.57015975	    131.78675910	     98.11511006	    105.65067396
      1.51000000	    -15.41397108	      5.57971328	     -5.76211062	     -0.28464661	      0.84936769	     -0.57976202	     64.17776942	     -6.03855948	     -4.08387593	     75.69849264	      1.32118794	     23.64822354	    -12.96043789	     -7.46755260	     60.96328294	    -12.38867396	     -7.17326468	     71.12109427	      1.24129726	     20.56799521	     10.66357874	     -7.46755260	    -29.23282384	     -3.68109109	     -8.74299939	    -39.25696989	    -10.76753174	      6.86577276	     55.65206071	    113.11205546	    131.54645449	   -153.79525415	    134.80253515	     94.31618632	    106.69292307
      1.52000000	    -16.83674201	      5.12969049	     -6.06820275	     -0.28586959	      0.82991493	     -0.58069633	     67.95033130	     -5.42830767	     -4.30835596	     79.25342137	      1.38323315	     23.60451798	    -13.75285560	     -7.46709246	     64.50313234	    -13.12951326	     -6.87401829	     74.71628734	      1.30404522	     23.42353872	      8.72761909	     -7.46709246	    -30.32209442	     -3.00510326	     -8.06599746	    -34.48281284	    -10.32279255	      7.13736909	     54.20882213	    113.90257724	    138.16789794	   -152.68776157	    139.23658049	     90.43572571	    107.95866495
